ply
format ascii 1.0
comment Created by Blender 2.79 (sub 0) - www.blender.org, source file: 'box.blend'
element vertex 26
property float x
property float y
property float z
property float nx
property float ny
property float nz
property uchar red
property uchar green
property uchar blue
element face 12
property list uchar uint vertex_indices
end_header
1.000000 1.000000 -1.000000 0.000000 -0.000000 -1.000000 255 1 208
-1.000000 -1.000000 -1.000000 0.000000 -0.000000 -1.000000 255 109 2
-1.000000 1.000000 -1.000000 0.000000 -0.000000 -1.000000 179 2 255
-1.000000 1.000000 1.000000 0.000000 0.000000 1.000000 10 255 48
0.999999 -1.000001 1.000000 0.000000 0.000000 1.000000 3 1 255
1.000000 0.999999 1.000000 0.000000 0.000000 1.000000 7 249 255
1.000000 0.999999 1.000000 1.000000 0.000000 -0.000000 7 249 255
1.000000 -1.000000 -1.000000 1.000000 0.000000 -0.000000 255 13 24
1.000000 1.000000 -1.000000 1.000000 0.000000 -0.000000 255 1 208
0.999999 -1.000001 1.000000 -0.000000 -1.000000 -0.000000 3 1 255
-1.000000 -1.000000 -1.000000 -0.000000 -1.000000 -0.000000 255 109 2
1.000000 -1.000000 -1.000000 -0.000000 -1.000000 -0.000000 255 13 24
-1.000000 -1.000000 -1.000000 -1.000000 0.000000 -0.000000 255 109 2
-1.000000 1.000000 1.000000 -1.000000 0.000000 -0.000000 10 255 48
-1.000000 1.000000 -1.000000 -1.000000 0.000000 -0.000000 179 2 255
1.000000 1.000000 -1.000000 0.000000 1.000000 0.000000 255 1 208
-1.000000 1.000000 1.000000 0.000000 1.000000 0.000000 10 255 48
1.000000 0.999999 1.000000 0.000000 1.000000 0.000000 7 249 255
1.000000 -1.000000 -1.000000 0.000000 0.000000 -1.000000 255 13 24
-1.000000 -1.000000 1.000000 0.000000 -0.000000 1.000000 228 255 3
1.000000 0.999999 1.000000 1.000000 -0.000001 0.000000 7 249 255
0.999999 -1.000001 1.000000 1.000000 -0.000001 0.000000 3 1 255
1.000000 -1.000000 -1.000000 1.000000 -0.000001 0.000000 255 13 24
-1.000000 -1.000000 1.000000 -0.000000 -1.000000 0.000000 228 255 3
-1.000000 -1.000000 1.000000 -1.000000 0.000000 -0.000000 228 255 3
-1.000000 1.000000 -1.000000 0.000000 1.000000 0.000000 179 2 255
3 0 1 2
3 3 4 5
3 6 7 8
3 9 10 11
3 12 13 14
3 15 16 17
3 0 18 1
3 3 19 4
3 20 21 22
3 9 23 10
3 12 24 13
3 15 25 16
