ply
format ascii 1.0
comment Created by Blender 2.79 (sub 0) - www.blender.org, source file: 'box.blend'
element vertex 8
property float x
property float y
property float z
property uchar red
property uchar green
property uchar blue
element face 12
property list uchar uint vertex_indices
end_header
1.000000 1.000000 -1.000000 255 1 208
-1.000000 -1.000000 -1.000000 255 109 2
-1.000000 1.000000 -1.000000 179 2 255
-1.000000 1.000000 1.000000 10 255 48
0.999999 -1.000001 1.000000 3 1 255
1.000000 0.999999 1.000000 7 249 255
1.000000 -1.000000 -1.000000 255 13 24
-1.000000 -1.000000 1.000000 228 255 3
3 0 1 2
3 3 4 5
3 5 6 0
3 4 1 6
3 1 3 2
3 0 3 5
3 0 6 1
3 3 7 4
3 5 4 6
3 4 7 1
3 1 7 3
3 0 2 3
